# xmcd
#
# Track frame offsets:
#	150
#	12913
#	24247
#	37638
#	50825
#	66582
#	78123
#	90730
#	104758
#	119091
#	135953
#	148374
#	162409
#	176093
#	188302
#	204230
#	221719
#	238109
#
# Disc length: 3307 seconds
#
# Revision: 1
# Processed by: cddbd v1.5.2PL0 Copyright (c) Steve Scherf et al.
# Submitted via: audiograbber 1.83.01
#
DISCID=fd0ce912
DTITLE=Teodoro and Sampaio - Quem Vai Mandar no Mundo é a Mulher
DYEAR=2008
DGENRE=Sertaneja
TTITLE0=Chora Nenem
TTITLE1=Lambida do Boi
TTITLE2=O Bocao
TTITLE3=Afogar o Ganso
TTITLE4=Quem Vai Mandar no Mundo é a Mulher
TTITLE5=Quarto de Milha
TTITLE6=Mulher Moderna
TTITLE7=Tô na Balada
TTITLE8=A Mulher do Meu Vizinho
TTITLE9=Eu e a Lua
TTITLE10=Parente do Lima
TTITLE11=Coração à Diesel
TTITLE12=Loira não é Burra
TTITLE13=Sobra Mais Mulher Pra Mim
TTITLE14=Tapete da Sala
TTITLE15=Não Conte Pra Ninguem
TTITLE16=A Turma do Boi
TTITLE17=Onde Cê Tá
EXTD=
EXTT0=
EXTT1=
EXTT2=
EXTT3=
EXTT4=
EXTT5=
EXTT6=
EXTT7=
EXTT8=
EXTT9=
EXTT10=
EXTT11=
EXTT12=
EXTT13=
EXTT14=
EXTT15=
EXTT16=
EXTT17=
PLAYORDER=
